# xmcd
#
# Track frame offsets:
#	150
#	14254
#	24392
#	37732
#	50414
#	60928
#	72386
#	84932
#	96590
#	113051
#
# Disc length: 1670 seconds
#
# Revision: 0
# Processed by: cddbd v1.5.2PL0 Copyright (c) Steve Scherf et al.
# Submitted via: EasyCDDAExtractor 16.0.1.1
#
DISCID=7206840a
DTITLE=Jim Ed Brown - Best of Jim Ed Brown
DYEAR=1900
DGENRE=Country
TTITLE0=Morning
TTITLE1=Southern Loving
TTITLE2=Evening
TTITLE3=Unbelievable
TTITLE4=Pop A Top
TTITLE5=Broad-Minded Man
TTITLE6=How I Love Them Old Songs
TTITLE7=Angel's Sunday
TTITLE8=She's Leavin' (Bonnie  Please Don't Go)
TTITLE9=10
EXTD=
EXTT0=
EXTT1=
EXTT2=
EXTT3=
EXTT4=
EXTT5=
EXTT6=
EXTT7=
EXTT8=
EXTT9=
PLAYORDER=
